<?xml version="1.0" encoding="UTF-8" standalone="no"?>
<svg xmlns:dc="http://purl.org/dc/elements/1.1/" xmlns:cc="http://creativecommons.org/ns#" xmlns:rdf="http://www.w3.org/1999/02/22-rdf-syntax-ns#" xmlns:svg="http://www.w3.org/2000/svg" xmlns="http://www.w3.org/2000/svg" xmlns:sodipodi="http://sodipodi.sourceforge.net/DTD/sodipodi-0.dtd" xmlns:inkscape="http://www.inkscape.org/namespaces/inkscape" width="256" height="256" id="svg2" version="1.1" inkscape:version="0.48.1 r9760" sodipodi:docname="MultiTouch-Interface_Mouse-theme_Pinch.svg" inkscape:export-filename="/home/leon/_DATA/gnu/img/20110914_MickeyMouse_Multi-Touch Interfaces Set/MultiTouch-Interface_Mouse-theme_Pinch.png" inkscape:export-xdpi="90" inkscape:export-ydpi="90">
  <defs id="defs4"/>
  <sodipodi:namedview id="base" pagecolor="#ffffff" bordercolor="#666666" borderopacity="1.0" inkscape:pageopacity="0.0" inkscape:pageshadow="2" inkscape:zoom="2" inkscape:cx="108.2046" inkscape:cy="128.70559" inkscape:document-units="px" inkscape:current-layer="layer1" showgrid="false" inkscape:showpageshadow="false" inkscape:window-width="1280" inkscape:window-height="970" inkscape:window-x="1280" inkscape:window-y="0" inkscape:window-maximized="1" showguides="true" inkscape:guide-bbox="true"/>
  <g inkscape:label="Layer 1" inkscape:groupmode="layer" id="layer1" transform="translate(0,-796.36218)">
    <rect style="fill:none;stroke:none" id="rect5238" width="256" height="256" x="0" y="796.36218"/>
    <g id="g5426" transform="translate(780,-840)">
      <g transform="translate(431.2935,786.12193)" id="g5634">
        <path style="fill:#000000;fill-opacity:1;stroke:none" d="m -1127.501,961.23606 c 0.051,-7.30794 -3.0497,-13.76886 -5.4699,-20.4145 l 7.3429,4.23945 c 2.0433,-3.88939 3.254,-8.71723 4.765,-13.20718 4.3682,7.56613 9.1403,5.27715 15.4888,8.9425 -3.0201,3.5793 -6.5579,6.5765 -9.0827,10.71433 l 7.3704,4.2553 c -7.2424,1.3309 -14.7156,2.39852 -20.4145,5.4701 z" id="rect5404-5-9-9-5" inkscape:connector-curvature="0" inkscape:transform-center-y="-15.563455" inkscape:transform-center-x="-8.8320272"/>
        <path style="fill:#000000;fill-opacity:1;stroke:none" d="m -1132.5082,970.98072 c -0.051,7.30793 3.0497,13.76886 5.47,20.4145 l -7.3429,-4.2394 c -2.0434,3.88939 -3.2541,8.71717 -4.7651,13.20708 -4.3682,-7.56608 -9.1402,-5.27705 -15.4888,-8.94245 3.0201,-3.5793 6.558,-6.57645 9.0827,-10.71433 l -7.3704,-4.2553 c 7.2425,-1.33085 14.7156,-2.39853 20.4145,-5.4701 z" id="rect5404-5-9-4-2-4" inkscape:connector-curvature="0" inkscape:transform-center-y="15.563435" inkscape:transform-center-x="8.8320228"/>
      </g>
      <g transform="matrix(1.2311028,0,0,1.2311028,-713.74536,545.61839)" id="g3915-8-3-0">
        <path style="fill:#ffffff;stroke:#000000;stroke-width:4.06139946;stroke-linecap:round;stroke-linejoin:round;stroke-miterlimit:4;stroke-opacity:1;stroke-dasharray:none" d="m 89.470687,1065.8714 c 3.726832,6.1263 -0.483788,10.0494 -6.15995,12.9466 -8.030164,4.0988 -27.897855,2.1019 -34.699927,-2.0136 -6.24272,-3.777 -9.012804,-9.3495 -6.040333,-14.1838" id="path3894-3-6-1" inkscape:connector-curvature="0" sodipodi:nodetypes="cssc"/>
        <path style="fill:#ffffff;fill-opacity:1;stroke:#000000;stroke-width:4.06139946;stroke-linecap:round;stroke-linejoin:round;stroke-miterlimit:4;stroke-opacity:1;stroke-dasharray:none" d="m -3.2128487,1024.851 c -5.606787,10.6472 16.8575877,15.2229 23.3019287,16.0368 7.742751,0.9779 19.199686,22.1936 32.629094,26.175 9.101434,2.6983 29.32616,3.8464 36.493957,-1.431 12.273189,-9.0365 18.480019,-20.6858 21.285449,-35.0876 0.99446,-5.1051 1.70705,-10.9864 0.95737,-15.7018 -3.18982,-20.06352 -14.950717,-20.04837 -19.514002,-20.76045 -2.727222,-8.72459 -12.698539,-15.04429 -26.06769,-12.39072 -0.102903,-10.74585 0.225533,-17.36509 1.112237,-27.5361 1.483222,-17.01343 -28.071976,-12.04036 -27.471124,15.26495 0.301644,13.70796 6.250445,36.76522 -1.611168,54.84842 -15.641416,-13.1957 -30.9525149,-18.7178 -41.1160517,0.5825 z" id="path3112-8-6-0" inkscape:connector-curvature="0" sodipodi:nodetypes="ssssssccsscs"/>
        <path sodipodi:nodetypes="cccc" inkscape:connector-curvature="0" id="path3882-8-1-4" d="m 63.837658,981.04376 c 0.0308,10.25346 1.214824,18.22508 7.225849,26.10544 -2.509089,-6.5752 -3.369203,-19.66596 -3.176554,-27.93864 z" style="font-size:medium;font-style:normal;font-variant:normal;font-weight:normal;font-stretch:normal;text-indent:0;text-align:start;text-decoration:none;line-height:normal;letter-spacing:normal;word-spacing:normal;text-transform:none;direction:ltr;block-progression:tb;writing-mode:lr-tb;text-anchor:start;baseline-shift:baseline;color:#000000;fill:#000000;fill-opacity:1;stroke:none;stroke-width:5.78096485;marker:none;visibility:visible;display:inline;overflow:visible;enable-background:accumulate;font-family:Sans;-inkscape-font-specification:Sans"/>
        <path sodipodi:nodetypes="cccc" inkscape:connector-curvature="0" id="path3884-7-6-0" d="m 93.470999,992.23059 -3.809103,1.48624 c 1.928991,5.57681 4.050861,11.84227 7.113743,15.18307 -1.080443,-2.6051 -2.077135,-11.97832 -3.30464,-16.66931 z" style="font-size:medium;font-style:normal;font-variant:normal;font-weight:normal;font-stretch:normal;text-indent:0;text-align:start;text-decoration:none;line-height:normal;letter-spacing:normal;word-spacing:normal;text-transform:none;direction:ltr;block-progression:tb;writing-mode:lr-tb;text-anchor:start;baseline-shift:baseline;color:#000000;fill:#000000;fill-opacity:1;stroke:none;stroke-width:5.78096485;marker:none;visibility:visible;display:inline;overflow:visible;enable-background:accumulate;font-family:Sans;-inkscape-font-specification:Sans"/>
        <path style="fill:none;stroke:#000000;stroke-width:4.06139946;stroke-linecap:round;stroke-linejoin:round;stroke-miterlimit:4;stroke-opacity:1;stroke-dasharray:none" d="m 83.386219,1059.0005 c 4.938545,-9.2507 5.142747,-12.0307 6.825825,-16.8322" id="path3886-1-1-6" inkscape:connector-curvature="0" sodipodi:nodetypes="cc"/>
        <path style="fill:none;stroke:#000000;stroke-width:4.06139946;stroke-linecap:round;stroke-linejoin:round;stroke-miterlimit:4;stroke-opacity:1;stroke-dasharray:none" d="m 73.981361,1058.8015 c 2.775181,-11.2619 3.047992,-16.939 4.21359,-24.6088" id="path3888-9-0-7" inkscape:connector-curvature="0" sodipodi:nodetypes="cc"/>
        <path style="fill:none;stroke:#000000;stroke-width:4.06139946;stroke-linecap:round;stroke-linejoin:round;stroke-miterlimit:4;stroke-opacity:1;stroke-dasharray:none" d="m 62.762633,1058.2654 c 0.855187,-7.9352 0.520982,-11.7573 0.555522,-16.8546" id="path3890-3-1-2" inkscape:connector-curvature="0" sodipodi:nodetypes="cc"/>
      </g>
    </g>
  </g>
</svg>
